<svg width="91" height="34" viewBox="0 0 91 34" fill="none" xmlns="http://www.w3.org/2000/svg">
<g clip-path="url(#clip0_1_3)">
<path d="M14.05 8.112L7.024 4.056L0 8.112V4.056L7.025 0L14.051 4.056L14.05 8.112Z" fill="#A435F0"/>
<path d="M0 11.518H3.68V20.459C3.68 22.769 5.405 23.895 7.025 23.895C8.659 23.895 10.371 22.739 10.371 20.428V11.518H14.051V20.672C14.051 22.8 13.382 24.442 12.044 25.568C10.705 26.693 9.033 27.241 6.994 27.241C4.957 27.241 3.284 26.694 1.977 25.568C0.669 24.443 0 22.862 0 20.763V11.518ZM45.866 22.63C44.752 23.622 43.483 24.108 42.036 24.108C39.396 24.108 37.626 22.604 37.426 20.275H49.316C49.316 20.275 49.396 19.523 49.396 18.817C49.396 16.627 48.696 14.802 47.266 13.312C45.868 11.822 44.044 11.092 41.823 11.092C39.482 11.092 37.565 11.822 36.044 13.312C34.554 14.802 33.794 16.748 33.794 19.182V19.302C33.794 21.705 34.554 23.621 36.044 25.051C37.534 26.48 39.511 27.21 41.914 27.21C44.708 27.21 46.931 26.108 48.599 24.208L45.866 22.63ZM38.872 15.167C39.692 14.528 40.697 14.194 41.822 14.194C42.886 14.194 43.768 14.528 44.529 15.198C45.255 15.808 45.647 16.557 45.681 17.418H37.52C37.638 16.528 38.088 15.778 38.873 15.168L38.872 15.167ZM82.91 29.276C81.417 32.801 79.855 34 77.46 34H75.8V30.738H77.142C77.966 30.738 78.732 30.428 79.462 28.744L80.192 27.058L73.896 11.518H77.637L82.108 22.71L86.701 11.518H90.441L82.91 29.276ZM28.377 5.649V12.906C27.171 11.826 25.295 11.183 23.481 11.183C21.321 11.183 19.497 11.943 18.007 13.493C16.547 15.014 15.817 16.899 15.817 19.18C15.817 21.462 16.547 23.347 18.007 24.898C19.497 26.419 21.322 27.18 23.481 27.18C25.971 27.18 27.545 26.201 28.377 25.434V26.845H32.027V5.65L28.377 5.649ZM27.282 22.527C26.4 23.409 25.275 23.866 23.967 23.866C22.659 23.866 21.595 23.409 20.713 22.527C19.863 21.645 19.436 20.52 19.436 19.182C19.436 17.843 19.862 16.718 20.713 15.836C21.595 14.954 22.659 14.498 23.967 14.498C25.275 14.498 26.4 14.954 27.282 15.836C28.194 16.718 28.652 17.843 28.652 19.182C28.652 20.52 28.194 21.645 27.282 22.527ZM68.222 11.214C65.45 11.214 64.009 12.364 63.022 13.472C62.627 12.719 61.515 11.214 58.917 11.214C56.721 11.214 55.427 12.324 54.781 13.114V11.52H51.163V26.847H54.781V18.027C54.781 15.959 56.059 14.469 57.761 14.469C59.496 14.469 60.499 15.777 60.499 17.875V26.846H64.118V18.026C64.118 15.928 65.364 14.468 67.158 14.468C68.892 14.468 69.895 15.776 69.895 17.873V26.845H73.545V17.357C73.545 13.361 71.397 11.215 68.222 11.215V11.214Z" fill="white"/>
</g>
<defs>
<clipPath id="clip0_1_3">
<rect width="91" height="34" fill="white"/>
</clipPath>
</defs>
</svg>
